<svg xmlns="http://www.w3.org/2000/svg" version="1" width="297" height="310" viewBox="0 0 297 310"
     preserveAspectRatio="xMidYMid meet"><g transform="translate(0.000000,310.000000) scale(0.100000,-0.100000)"><path d="M277 3078C179 3057 92 2988 43 2890L15 2835 15 1620 15 405 43 350c34-69 63-102 124-140 67-43 112-53 238-55l110-2C515 68.36 537.57 18 721.19 18 921.45 18 922 59.18 922 146c17 11 1089 11 1095 1 0-74.07 4.46-126 209-126 182.45 0 190.09 40.1 190.09 121.91 1 12 22.91 12.09 106.91 13.09 139 1 163 5 227 36 69 34 75.09 47.82 123 101 73 96 69 26 69 1326 0 1217 1 1208-42 1291-36 71-131 145-214 167-33 9-2367 10-2409 1zm2183-202c162.24 0 275-102.04 275-251l1-985c2-1063 3-1038-51-1121-55-85-150-146-242-155-651.92 0-1243.03 0-1938 0C374.72 364 217.41 486.09 217.41 619.81 217.41 671.01 213.71 617.3 214 748c-5 136-9 157-23 147-6-3-17 5-25 18-13 19-16 65-16 260-1 244 3 270 40 282 17 6 20 15 21 78 2 236 0 299-10 293-4-3-18 5-29 17-21 22-22 32-22 263-1 132 2 248 6 258 4 9 17 22 30 27 22 8 24 14 24 81 1 103 8 145 37 209 41 94 142 176 237 193 16 3 30 6 31 8 7 7 1905 1 1945-6z"/><path d="M183.19 44.22C122.55 44.16 62.5 44.44 62.5 45.13c0 0.63-0.37 1-0.87 0.88C59.88 45.5 55 47.63 55 48.88 55 49.5 54.25 50 53.5 50c-1.87 0-7.37 7.88-8.87 12.5-0.5 1.75-1 56.88-1 122.63 0 133.63 0.09 114.44 0.09 123.39 0 9.83 9.31 16.94 16.66 16.94 7.11 0 20.63 0.29 123.37 0.17 66.38-0.12 121.88-0.62 123.38-1 6.61 0 18.25-9.69 18.25-19l0-120.25 0-120.12c0-8.56-9.91-19.87-18-19.87-2.31-0.69-63.55-1.09-124.19-1.16zm0.66 24.84C248 69.06 300 120.52 300 184 300 247.48 248 298.94 183.84 298.94 119.69 298.94 67.69 247.48 67.69 184c0-63.48 52-114.94 116.16-114.94zm16.44 18.47C197.02 87.63 194.75 88.69 192.81 90.75c-2.87 3.13-3 3.88-3.37 24.63-0.25 12.63-1 22.13-1.75 23-0.75 0.88-2.62 1.63-4.25 1.63-3.87 0-4.12-1.37-4.5-25.87-0.37-19.37-0.5-20.25-3.37-23.37-3.87-4.12-10-4.25-22-0.25-31.13 10.13-54.75 34-64.25 65-3.62 11.75-3.5 17 0.63 20.88 3.13 2.88 3.88 3 24.63 3.38 12.63 0.25 22.13 1 23 1.75 2.38 2 2 7-0.75 8.5-1.37 0.75-10.87 1.25-22 1.25-19.62 0-23.25 0.63-26.5 4.88-3.87 5 1 23.38 10.38 39.5 6.88 11.63 22.62 27.88 33.38 34.25 13.88 8.25 31.88 13.88 38.75 12.13 6.63-1.62 7.75-5.37 8.38-28.62 0.5-18.5 0.88-21.37 2.75-22.62 1.63-1 2.88-1 4.38 0 2 1.25 2.38 4.13 2.88 22.63 0.63 23.25 1.75 27 8.38 28.63 6.88 1.75 24.88-3.87 38.75-12.12 10.75-6.37 26.5-22.62 33.38-34.25 9.38-16.12 14.25-34.5 10.38-39.5-3.25-4.25-6.87-4.87-26.5-4.87-11.12 0-20.62-0.5-22-1.25-2.75-1.5-3.12-6.5-0.75-8.5 0.88-0.75 10.38-1.5 23-1.75 20.75-0.37 21.5-0.5 24.63-3.37 4.13-3.87 4.25-9.12 0.63-20.87-9.62-31.37-34-55.75-65.37-65.37-5.87-1.81-10.14-2.69-13.41-2.59z" transform="matrix(8,0,0,-8,0,3100)"/></g></svg>