<?xml version="1.0" encoding="UTF-8" standalone="no"?>
<svg
   xmlns:dc="http://purl.org/dc/elements/1.1/"
   xmlns:cc="http://creativecommons.org/ns#"
   xmlns:rdf="http://www.w3.org/1999/02/22-rdf-syntax-ns#"
   xmlns:svg="http://www.w3.org/2000/svg"
   xmlns="http://www.w3.org/2000/svg"
   xmlns:sodipodi="http://sodipodi.sourceforge.net/DTD/sodipodi-0.dtd"
   xmlns:inkscape="http://www.inkscape.org/namespaces/inkscape"
   version="1.0"
   width="297.000000pt"
   height="310.000000pt"
   viewBox="0 0 297.000000 310.000000"
   preserveAspectRatio="xMidYMid meet"
   id="svg2"
   inkscape:version="0.48.5 r10040"
   sodipodi:docname="Drawing_1_.svg">
  <defs
     id="defs16" />
  <sodipodi:namedview
     pagecolor="#ffffff"
     bordercolor="#666666"
     borderopacity="1"
     objecttolerance="10"
     gridtolerance="10"
     guidetolerance="10"
     inkscape:pageopacity="0"
     inkscape:pageshadow="2"
     inkscape:window-width="1102"
     inkscape:window-height="788"
     id="namedview14"
     showgrid="false"
     inkscape:zoom="0.68727599"
     inkscape:cx="110.33905"
     inkscape:cy="420.83805"
     inkscape:window-x="198"
     inkscape:window-y="10"
     inkscape:window-maximized="0"
     inkscape:current-layer="g6" />
  <metadata
     id="metadata4">
Created by potrace 1.13, written by Peter Selinger 2001-2015
<rdf:RDF>
  <cc:Work
     rdf:about="">
    <dc:format>image/svg+xml</dc:format>
    <dc:type
       rdf:resource="http://purl.org/dc/dcmitype/StillImage" />
    <dc:title></dc:title>
  </cc:Work>
</rdf:RDF>
</metadata>
  <g
     transform="translate(0.000000,310.000000) scale(0.100000,-0.100000)"
     fill="#000000"
     stroke="none"
     id="g6">
    <path
       d="M 277,3078 C 179,3057 92,2988 43,2890 L 15,2835 15,1620 15,405 43,350 c 34,-69 63,-102 124,-140 67,-43 112,-53 238,-55 l 110,-2 C 515,68.362131 537.57406,18 721.19035,18 921.45312,18 922,59.17814 922,146 c 17,11 1089,11 1095,1 0,-74.069458 4.4566,-126 209,-126 182.4471,0 190.09,40.102767 190.09,121.91004 1,12 22.91,12.08996 106.91,13.08996 139,1 163,5 227,36 69,34 75.09,47.82008 123,101 73,96 69,26 69,1326 0,1217 1,1208 -42,1291 -36,71 -131,145 -214,167 -33,9 -2367,10 -2409,1 z m 2183,-202 c 162.2384,0 275,-102.0433 275,-251 l 1,-985 c 2,-1063 3,-1038 -51,-1121 -55,-85 -150,-146 -242,-155 -651.9228,0 -1243.0263,0 -1938,0 C 374.71562,364 217.40861,486.08833 217.40861,619.81046 217.40861,671.0116 213.71,617.30272 214,748 c -5,136 -9,157 -23,147 -6,-3 -17,5 -25,18 -13,19 -16,65 -16,260 -1,244 3,270 40,282 17,6 20,15 21,78 2,236 0,299 -10,293 -4,-3 -18,5 -29,17 -21,22 -22,32 -22,263 -1,132 2,248 6,258 4,9 17,22 30,27 22,8 24,14 24,81 1,103 8,145 37,209 41,94 142,176 237,193 16,3 30,6 31,8 7,7 1905,1 1945,-6 z"
       id="path8"
       inkscape:connector-curvature="0"
       sodipodi:nodetypes="sccccccccccccccccsccsccccccscccccccccccccccc" />
    <path
       d="M 183.1875,44.21875 C 122.54688,44.15625 62.5,44.4375 62.5,45.125 c 0,0.625 -0.375,1 -0.875,0.875 C 59.875,45.5 55,47.625 55,48.875 55,49.5 54.25,50 53.5,50 c -1.875,0 -7.375,7.875 -8.875,12.5 -0.5,1.75 -1,56.875 -1,122.625 0,133.625 0.08801,114.44302 0.08801,123.39423 0,9.82781 9.307238,16.93579 16.661994,16.93579 7.110962,0 20.625,0.29498 123.374996,0.16998 66.375,-0.125 121.875,-0.625 123.375,-1 6.61011,0 18.25,-9.69417 18.25,-19 l 0,-120.25 0,-120.125 c 0,-8.557196 -9.90769,-19.875 -18,-19.875 -2.3125,-0.6875 -63.54688,-1.09375 -124.1875,-1.15625 z m 0.65625,24.84375 C 248.00151,69.0625 300,120.52236 300,184 300,247.47764 248.00151,298.9375 183.84375,298.9375 119.68599,298.9375 67.6875,247.47764 67.6875,184 c 0,-63.47764 51.99849,-114.9375 116.15625,-114.9375 z m 16.4375,18.46875 C 197.01562,87.625 194.75,88.6875 192.8125,90.75 c -2.875,3.125 -3,3.875 -3.375,24.625 -0.25,12.625 -1,22.125 -1.75,23 -0.75,0.875 -2.625,1.625 -4.25,1.625 -3.875,0 -4.125,-1.375 -4.5,-25.875 -0.375,-19.375 -0.5,-20.25 -3.375,-23.375 -3.875,-4.125 -10,-4.25 -22,-0.25 -31.12501,10.125 -54.75,34 -64.25,65 -3.625,11.75 -3.5,17 0.625,20.875 3.125,2.875 3.875,3 24.625,3.375 12.625,0.25 22.125,1 23,1.75 2.375,2 2,7 -0.75,8.5 -1.375,0.75 -10.875,1.25 -22,1.25 -19.625,0 -23.25,0.625 -26.5,4.875 -3.875,5 1,23.375 10.375,39.5 6.875,11.625 22.62499,27.875 33.375,34.25 13.875,8.25001 31.875,13.875 38.75,12.125 6.625,-1.625 7.75,-5.37499 8.375,-28.625 0.5,-18.5 0.875,-21.375 2.75,-22.625 1.625,-1 2.875,-1 4.375,0 2,1.25 2.375,4.125 2.875,22.625 0.625,23.25002 1.75,27 8.375,28.625 6.875,1.75 24.875,-3.87499 38.75,-12.125 10.75,-6.375 26.5,-22.625 33.375,-34.25 9.375,-16.125 14.25,-34.5 10.375,-39.5 -3.25,-4.25 -6.875,-4.875 -26.5,-4.875 -11.125,0 -20.625,-0.5 -22,-1.25 -2.75,-1.5 -3.125,-6.5 -0.75,-8.5 0.875,-0.75 10.375,-1.5 23,-1.75 20.75,-0.375 21.5,-0.5 24.625,-3.375 4.125,-3.875 4.25,-9.125 0.625,-20.875 -9.625,-31.375 -34,-55.75 -65.375,-65.375 -5.875,-1.8125 -10.14062,-2.6875 -13.40625,-2.59375 z"
       id="path10"
       transform="matrix(8,0,0,-8,0,3100)"
       inkscape:connector-curvature="0"
       sodipodi:nodetypes="sscsscsccccccccsssssssccsscccccccssccccccccccccsscccccs" />
  </g>
</svg>
