<svg xmlns="http://www.w3.org/2000/svg" version="1.1" width="24" height="24" viewBox="0 0 24 24">
    <path d="M17.92,13C17.5,15.5 15.5,17.5 13,17.92V16H11V17.92C8.5,17.5 6.5,15.5 6.08,13H8V11H6.08C6.5,8.5 8.5,6.5 11,6.08V8H13V6.08C15.5,6.5 17.5,8.5 17.92,11H16V13H17.92M19.94,11C19.5,7.38 16.62,4.5 13,4.06V2H11V4.06C7.38,4.5 4.5,7.38 4.06,11H2V13H4.06C4.5,16.62 7.38,19.5 11,19.94V22H13V19.94C16.62,19.5 19.5,16.62 19.94,13H22V11H19.94M12,10A2,2 0 0,1 14,12A2,2 0 0,1 12,14A2,2 0 0,1 10,12A2,2 0 0,1 12,10H12Z" />
</svg>