<svg version="1.1" id="VARG" xmlns="http://www.w3.org/2000/svg" x="0px" y="0px"
 width="470px" height="310px" viewBox="0 0 470 310" enable-background="new 0 0 470 310" xml:space="preserve">
<circle cx="176.225" cy="146.25" r="71.595"/>
<polygon points="298.85,174.375 298.85,79.875 254.975,79.875 254.975,214.875 350.6,214.875 350.6,174.375 "/>
<polygon points="457.649,79.875 332.426,79.875 332.426,120.375 373.1,120.375 373.1,214.875 416.975,214.875 416.975,120.375 
457.649,120.375 "/>
<path d="M337.1,57.375c0,0-18,15.188-56.813,15.188c-55.125,0-68.625-31.5-141.75-31.5c-36.563,0-72.562,33.75-72.563,86.063
C65.975,164.25,94.1,265.5,263.413,265.5c65.25,0,132.75-33.188,132.75-33.188s-55.688,74.813-173.25,74.813
c-128.25,0-219.375-70.313-219.375-170.438S83.975,4.5,130.663,4.5s55.125,12.375,88.313,12.375c21.375,0,45-14.063,45-14.063
S277.475,33.188,337.1,57.375z"/>
<path d="M449.063,216.335c-9.496,0-17.952-6.566-17.952-17.857s8.456-17.857,17.952-17.857c9.448,0,17.904,6.567,17.904,17.857
S458.511,216.335,449.063,216.335z"/>
<path fill="#FFFFFF" d="M449.063,184.778c-7.086,0-12.802,5.48-12.802,13.7c0,8.22,5.716,13.747,12.802,13.7v0.047
c6.897,0,12.755-5.527,12.755-13.747C461.818,190.258,455.96,184.778,449.063,184.778z"/>
<circle fill="#FFFFFF" cx="176.225" cy="146.25" r="29.433"/>
<path d="M446.086,208.068h-4.11v-19.227h7.181c4.96,0,7.889,1.417,7.889,5.811c0,3.543-2.079,4.819-4.63,5.008l4.913,8.409h-4.866
l-4.441-8.078h-1.937V208.068z"/>
<path fill="#FFFFFF" d="M449.724,196.73c1.843,0,2.929-0.378,2.929-2.504c0-1.984-2.126-2.125-3.685-2.125h-2.881v4.629H449.724z"/>
</svg>
