<svg xmlns="http://www.w3.org/2000/svg" version="1.0" viewBox="0 0 200 200" id="Layer_1" xml:space="preserve"><defs id="defs54"/>
<g id="g3">
	<path d="M 97.003,41.221 L 99.195,45.462 C 104.497,46.801 109.158,49.698 114.107,52.102 C 115.092,52.454 116.224,52.243 116.791,51.253 C 116.436,49.912 117.284,48.638 118.484,48.358 C 119.404,48.003 120.325,48.498 121.029,49.065 C 121.804,50.124 121.804,51.535 121.029,52.598 C 119.967,54.008 118.414,54.294 116.791,54.646 L 116.791,55.847 C 118.484,55.353 121.243,56.343 122.585,54.295 C 124.141,53.94 125.624,54.716 125.977,56.202 C 128.665,56.343 131.489,57.331 132.762,59.876 C 133.114,61.287 132.903,62.842 132.264,63.977 C 131.557,64.894 130.147,64.468 129.229,64.329 C 127.249,63.409 128.452,58.11 124.987,60.584 L 123.295,62.772 L 119.55,78.251 L 111.07,111.956 L 106.97,111.956 C 106.122,106.727 104.991,101.639 102.099,97.185 C 103.791,96.123 105.84,95.845 108.035,95.845 L 109.515,98.386 L 110.009,98.032 L 119.335,60.936 C 118.632,59.38 117.147,61.502 115.803,60.584 C 113.965,59.736 116.794,55.143 113.404,57.332 C 114.816,59.877 113.898,63.054 112.271,65.175 C 111.42,65.743 110.826,66.351 109.375,66.024 C 108.598,65.388 107.82,64.329 108.316,63.268 C 108.88,61.853 110.779,62.464 111.07,60.725 C 110.433,56.483 107.185,52.385 103.226,50.406 C 100.469,48.85 97.219,48.499 93.755,48.711 L 93.262,46.025 C 93.9,45.462 95.169,45.884 95.451,44.825 C 95.379,44.048 95.231,43.211 94.251,42.917 C 93.262,42.774 92.555,43.906 92.203,44.614 C 91.285,46.662 92.414,48.71 93.262,50.406 C 93.191,51.326 92.624,52.174 91.917,52.599 C 89.376,50.616 89.658,46.732 90.221,43.766 C 90.648,42.071 92.132,40.655 93.755,40.089 C 95.649,39.522 96.512,40.557 97.003,41.221 L 97.003,41.221 z " id="path5"/>
	<path d="M 89.374,49.698 C 83.51,53.375 79.48,59.451 81.036,66.661 C 81.744,70.686 83.721,74.431 87.465,76.833 L 85.769,83.333 C 78.702,78.318 74.677,70.686 76.302,61.783 C 75.525,61.075 74.536,61.642 73.759,61.924 C 69.73,66.585 74.111,71.885 75.595,76.34 C 76.725,79.027 78.847,81.426 80.544,83.618 C 78.422,88.918 79.129,96.055 81.883,100.787 C 83.013,98.951 83.369,96.831 84.076,94.85 L 87.325,97.394 L 83.228,111.954 L 78.988,112.165 C 77.784,102.273 75.805,92.451 67.33,85.878 C 70.296,79.447 68.459,71.323 65.067,65.667 C 64.218,65.035 63.511,63.408 62.381,63.829 C 61.604,65.174 61.956,67.223 60.19,67.86 C 58.662,68.071 57.79,67.86 56.941,67.012 C 55.882,65.742 55.526,63.829 55.952,62.135 C 56.807,60.385 57.579,59.663 58.99,59.239 C 60.615,59.028 61.885,59.593 63.371,59.736 C 64.716,58.391 66.337,57.332 68.318,58.039 L 70.508,59.595 C 72.205,58.957 74.537,58.532 76.089,59.595 L 76.655,60.088 C 78.634,54.648 83.229,48.996 88.81,46.875 L 89.374,49.698 L 89.374,49.698 z " id="path7"/>
	<path d="M 96.296,53.447 C 103.223,59.239 108.24,66.375 109.865,74.645 L 106.119,76.691 C 104.848,68.778 102.094,61.075 95.098,55.988 C 92.183,56.852 91.033,59.506 89.657,61.783 C 88.032,65.387 86.053,68.778 85.276,72.807 C 84.146,72.523 83.51,70.896 82.872,69.909 C 84.002,62.842 89.232,57.542 93.753,51.961 C 94.461,51.114 94.25,49.135 95.805,49.418 L 98.134,49.913 L 96.296,53.447 L 96.296,53.447 z " id="path9"/>
	<path d="M 101.525,77.542 C 100.185,78.249 98.131,78.249 96.296,78.249 C 95.592,76.622 94.816,75.066 94.108,73.441 L 89.018,91.462 C 87.464,90.755 86.759,89.128 86.123,87.713 L 94.25,57.19 L 101.525,77.542 L 101.525,77.542 z " id="path11"/>
	<path d="M 112.552,82.981 L 109.51,94.64 C 105.485,94.006 102.446,95.629 99.338,97.183 C 98.207,93.368 95.168,89.622 91.564,87.36 L 93.753,79.092 C 99.407,80.364 105.484,79.305 109.865,75.981 C 110.43,78.319 111.207,80.864 112.552,82.981 L 112.552,82.981 z " id="path13"/>
	<path d="M 137.354,83.123 C 134.172,83.548 132.125,87.081 130.925,89.553 C 130.147,86.586 127.246,83.549 124.141,83.123 L 123.787,83.123 C 127.107,82.559 129.933,79.378 130.71,76.197 C 131.346,79.377 134.313,82.133 137.354,83.123 L 137.354,83.123 z " id="path15"/>
	<path d="M 64.218,83.479 C 61.532,84.396 58.637,86.656 58,89.553 C 56.8,87.365 54.889,84.111 52.064,83.479 C 54.609,83.123 57.434,79.875 58.141,77.044 C 59.13,79.588 61.181,82.771 64.218,83.479 L 64.218,83.479 z " id="path17"/>
	<path d="M 84.92,87.859 C 86.265,90.118 88.101,93.792 91.212,93.299 C 92.553,92.802 92.834,90.756 93.898,90.756 C 96.016,92.31 94.601,95.277 96.441,96.902 C 92.978,97.61 96.226,101.143 94.249,102.839 C 92.908,98.88 88.452,97.538 85.768,94.358 C 82.802,90.614 80.964,86.234 81.53,81.285 C 84.638,82.344 84.002,85.596 84.92,87.859 L 84.92,87.859 z " id="path19"/>
	<path d="M 123.434,107.924 C 121.526,115.346 113.962,121.776 106.829,123.823 C 94.533,126.933 82.523,123.4 72.913,117.042 C 72.772,117.891 72.63,118.878 71.713,119.23 C 70.298,119.443 69.025,118.38 68.461,117.251 C 68.954,113.856 63.162,110.466 68.181,107.711 C 66.836,105.237 66.27,101.847 67.964,99.446 C 69.025,98.029 70.934,97.749 72.417,98.383 C 73.903,99.304 74.397,100.926 74.61,102.484 C 74.61,104.109 73.903,105.455 73.055,106.724 C 78.002,117.89 89.942,121.068 101.038,120.289 C 107.604,119.087 115.237,114.069 116.651,107.073 C 117.145,104.602 116.581,102.13 115.662,100.078 L 118.487,88.419 C 123.713,93.299 124.848,101.002 123.434,107.924 L 123.434,107.924 z " id="path21"/>
	<path d="M 97.641,110.468 C 97.145,111.6 95.452,113.651 97.995,114.001 C 99.199,114.497 99.41,115.838 98.983,116.897 C 98.134,117.891 96.652,117.891 95.452,117.537 C 94.252,116.974 92.836,116.052 92.414,114.71 C 92.273,113.869 92.132,113.085 92.766,112.663 C 91.777,111.956 90.082,111.106 90.01,109.622 C 90.082,108.633 90.437,107.786 91.07,107.077 C 90.082,105.666 89.59,103.897 90.01,102.134 C 90.296,101.638 90.859,101.57 91.355,101.638 C 92.344,102.699 92.766,104.326 94.251,104.82 C 97.501,104.82 99.55,101.781 102.095,99.943 C 106.047,103.896 98.7,106.725 97.641,110.468 L 97.641,110.468 z " id="path23"/>
	<path d="M 45.229,83.383 C 45.229,110.626 67.393,132.79 94.636,132.79 C 121.881,132.79 144.047,110.626 144.047,83.383 C 144.047,56.14 121.881,33.976 94.636,33.976 C 67.394,33.976 45.229,56.14 45.229,83.383 L 45.229,83.383 z M 48.41,83.383 C 48.41,57.894 69.147,37.156 94.637,37.156 C 120.128,37.156 140.867,57.893 140.867,83.383 C 140.867,108.873 120.128,129.61 94.637,129.61 C 69.146,129.609 48.41,108.872 48.41,83.383 L 48.41,83.383 z " id="path25"/>
	<path d="M 21.793,143.712 L 21.286,143.712 C 20.674,142.365 19.684,138.983 16.275,138.953 C 14.036,138.953 13.58,140.837 13.58,141.449 C 13.58,142.568 14.085,143.863 16.883,144.857 C 20.804,146.23 22.506,148.316 22.506,150.754 C 22.506,152.534 21.615,156.12 16.122,156.12 C 14.645,156.12 13.018,155.255 11.798,155.255 C 11.492,155.255 11.389,155.64 11.316,156.12 L 10.704,156.12 L 10.704,149.94 L 11.287,149.94 L 11.822,151.719 C 12.128,152.711 13.832,155.329 16.172,155.329 C 19.481,155.329 19.657,153.142 19.657,152.531 C 19.657,151.058 18.82,150.295 14.673,148.386 C 11.822,147.064 10.932,144.851 10.932,143.273 C 10.932,139.814 13.681,138.112 15.817,138.112 C 18.512,138.112 19.175,139.025 20.445,139.05 C 20.854,139.05 20.905,138.647 21.209,138.112 L 21.793,138.112 L 21.793,143.712 L 21.793,143.712 z " id="path27"/>
	<path d="M 29.221,153.886 C 29.221,155.082 29.859,155.159 30.315,155.159 L 30.315,155.689 L 24.668,155.689 L 24.668,155.159 C 25.125,155.159 25.762,155.082 25.762,153.886 L 25.762,145.492 C 25.762,144.831 24.896,144.705 24.463,144.553 L 24.463,144.018 L 29.221,144.018 L 29.221,145.848 L 29.27,145.848 C 29.6,145.264 29.956,144.858 30.314,144.553 C 31.104,143.865 32.806,143.563 33.949,143.815 C 35.5,144.147 35.807,144.858 36.115,145.776 C 36.418,145.264 36.8,144.885 37.132,144.553 C 38.528,143.202 43.107,143.127 43.107,147.171 L 43.107,153.886 C 43.107,155.082 43.745,155.159 44.201,155.159 L 44.201,155.689 L 38.556,155.689 L 38.556,155.159 C 39.014,155.159 39.648,155.082 39.648,153.886 L 39.648,146.991 C 39.648,145.161 38.226,145.24 37.588,145.443 C 36.952,145.644 36.418,146.23 36.162,146.839 L 36.162,153.884 C 36.162,155.08 36.8,155.157 37.258,155.157 L 37.258,155.687 L 31.61,155.687 L 31.61,155.157 C 32.068,155.157 32.704,155.08 32.704,153.884 L 32.704,146.988 C 32.704,145.159 31.28,145.238 30.646,145.439 C 30.008,145.64 29.474,146.228 29.221,146.836 L 29.221,153.886 L 29.221,153.886 z " id="path29"/>
	<path d="M 50.176,153.886 C 50.176,155.082 50.81,155.159 51.272,155.159 L 51.272,155.689 L 45.624,155.689 L 45.624,155.159 C 46.082,155.159 46.718,155.082 46.718,153.886 L 46.718,145.799 C 46.718,144.604 46.082,144.526 45.624,144.526 L 45.624,143.997 L 50.177,143.997 L 50.176,153.886 L 50.176,153.886 z M 48.445,138.143 C 49.491,138.143 50.328,138.983 50.328,140.024 C 50.328,141.067 49.491,141.91 48.445,141.91 C 47.404,141.91 46.563,141.067 46.563,140.024 C 46.563,138.982 47.404,138.143 48.445,138.143 L 48.445,138.143 z " id="path31"/>
	<path d="M 60.143,153.453 C 59.379,154.978 58.565,156.123 56.378,156.123 C 54.957,156.123 53.784,155.234 53.784,154.089 L 53.784,145.188 L 52.564,145.188 L 52.564,144.477 C 53.479,143.612 54.698,142.414 56.685,139.748 L 57.244,139.748 L 57.244,143.995 L 59.56,143.995 L 59.56,145.185 L 57.244,145.185 L 57.244,153.426 C 57.244,154.469 57.702,154.672 57.955,154.672 C 58.514,154.672 59.381,153.708 59.637,153.173 L 60.143,153.453 L 60.143,153.453 z " id="path33"/>
	<path d="M 72.678,153.886 C 72.678,155.082 73.315,155.159 73.771,155.159 L 73.771,155.689 L 68.124,155.689 L 68.124,155.159 C 68.581,155.159 69.218,155.082 69.218,153.886 L 69.218,146.817 C 69.218,145.469 67.998,145.393 67.387,145.571 C 66.523,145.8 66.04,146.434 65.758,147.048 L 65.758,153.89 C 65.758,155.085 66.396,155.162 66.852,155.162 L 66.852,155.692 L 61.205,155.692 L 61.205,155.162 C 61.661,155.162 62.299,155.085 62.299,153.89 L 62.299,140.51 C 62.299,139.318 61.661,139.239 61.205,139.239 L 61.205,138.658 L 65.758,138.658 L 65.758,145.752 C 66.698,144.786 67.718,143.284 70.26,143.819 C 71.378,144.048 72.677,144.887 72.677,146.843 L 72.677,153.887 L 72.678,153.886 L 72.678,153.886 z " id="path35"/>
	<path d="M 94.27,153.021 C 93.686,154.04 93.101,155.129 92.133,155.587 C 91.268,156.047 89.949,156.426 88.674,155.769 C 87.58,155.206 87.122,154.623 86.461,153.939 C 84.679,155.129 82.898,156.173 80.51,156.123 C 76.083,156.021 75.272,151.775 76.515,149.434 C 77.585,147.455 80.077,146.283 80.918,145.848 L 79.951,143.994 C 79.771,143.635 79.595,142.973 79.595,142.264 C 79.595,139.442 81.961,138.143 84.606,138.143 C 87.277,138.143 88.649,139.645 88.649,140.995 C 88.649,142.266 87.911,143.462 86.945,143.97 L 84.835,145.087 C 86.004,146.994 87.224,148.751 88.649,150.483 C 89.462,149.871 90.454,148.089 90.633,147.504 C 91.168,145.649 89.947,145.775 89.028,145.649 L 89.028,145.118 L 94.141,145.118 L 94.141,145.649 C 92.846,145.52 92.336,146.489 91.496,148.016 C 90.785,149.311 90.277,150.048 89.207,151.272 C 89.486,151.604 89.947,152.391 91.038,153.153 C 92.517,154.143 93.354,153.458 93.763,152.669 L 94.27,153.021 L 94.27,153.021 z M 84.325,144.373 L 85.115,143.994 C 86.106,143.508 86.233,142.618 86.233,142.185 C 86.233,141.292 85.65,138.906 83.664,138.906 C 82.647,138.906 82.268,139.488 82.268,140.203 C 82.268,140.837 82.521,141.577 82.9,142.16 L 84.325,144.373 L 84.325,144.373 z M 81.274,146.587 C 80.536,147.147 79.343,147.629 79.343,149.385 C 79.343,151.088 81.377,154.294 83.334,154.27 C 84.276,154.244 84.886,153.809 85.93,153.203 C 84.121,150.984 82.597,148.802 81.274,146.587 L 81.274,146.587 z " id="path37"/>
	<path d="M 117.848,140.992 C 118.661,138.855 117.186,138.906 115.965,138.906 L 115.965,138.371 L 120.694,138.371 L 120.694,138.906 C 120.057,138.906 119.676,139.234 119.196,140.458 L 113.776,156.123 L 113.065,156.123 L 108.869,143.687 L 108.817,143.687 L 104.037,156.123 L 103.272,156.123 L 97.983,140.355 C 97.395,138.906 96.813,138.877 96.275,138.906 L 96.275,138.371 L 104.443,138.371 L 104.443,138.906 C 102.15,138.906 101.97,139.693 102.254,140.404 L 105.203,149.842 L 105.255,149.842 L 108.331,142.186 L 107.697,140.378 C 107.187,138.904 106.579,138.879 105.814,138.904 L 105.814,138.37 L 114.207,138.37 L 114.207,138.904 C 111.92,138.904 111.741,139.691 112.019,140.402 L 114.689,150.146 L 114.742,150.146 L 117.848,140.992 L 117.848,140.992 z " id="path39"/>
	<path d="M 131.786,153.122 C 130.594,155.286 129.066,156.123 127.08,156.123 C 124.182,156.123 121.87,154.012 121.87,149.789 C 121.87,146.383 124.182,143.687 127.236,143.687 C 129.318,143.687 131.736,145.644 131.736,148.799 L 131.736,149.56 L 125.3,149.56 C 125.3,149.994 125.278,151.085 126.016,152.664 C 126.908,154.602 128.38,154.421 129.067,154.216 C 130.213,153.886 131.078,153.072 131.305,152.742 L 131.786,153.122 L 131.786,153.122 z M 128.734,148.543 C 128.734,147.297 128.838,146.18 128.457,145.264 C 128.127,144.477 126.751,143.967 125.913,145.289 C 125.505,145.951 125.351,147.045 125.3,148.543 L 128.734,148.543 L 128.734,148.543 z " id="path41"/>
	<path d="M 140.588,147.398 L 139.899,145.796 C 139.596,145.108 138.17,144.398 137.331,144.498 C 135.018,144.778 135.706,147.019 136.851,147.549 C 137.765,147.984 138.656,148.414 139.572,148.849 C 141.84,149.945 141.988,152.765 141.302,154.165 C 140.363,156.099 137.894,156.478 135.857,155.867 C 135.377,155.715 134.103,155.079 133.799,156.12 L 133.314,156.12 L 133.265,151.897 L 133.824,151.952 C 133.976,152.384 134.921,155.972 137.845,155.283 C 139.497,154.897 140.004,153.095 138.326,152.028 C 137.359,151.417 136.164,151.162 135.273,150.501 C 131.176,147.423 134.177,143.788 137.002,143.687 C 137.794,143.664 138.961,143.837 139.701,144.12 C 140.03,144.246 140.561,144.296 140.664,143.687 L 141.123,143.687 L 141.149,147.398 L 140.588,147.398 L 140.588,147.398 z " id="path43"/>
	<path d="M 150.479,147.398 L 149.792,145.796 C 149.484,145.108 148.061,144.398 147.225,144.498 C 144.91,144.778 145.596,147.019 146.74,147.549 C 147.658,147.984 148.549,148.414 149.465,148.849 C 151.728,149.945 151.882,152.765 151.194,154.165 C 150.254,156.099 147.787,156.478 145.753,155.867 C 145.267,155.715 143.997,155.079 143.69,156.12 L 143.21,156.12 L 143.155,151.897 L 143.716,151.952 C 143.871,152.384 144.812,155.972 147.736,155.283 C 149.388,154.897 149.9,153.095 148.222,152.028 C 147.252,151.417 146.056,151.162 145.165,150.501 C 141.073,147.423 144.074,143.788 146.895,143.687 C 147.684,143.664 148.852,143.837 149.591,144.12 C 149.92,144.246 150.455,144.296 150.559,143.687 L 151.018,143.687 L 151.039,147.398 L 150.479,147.398 L 150.479,147.398 z " id="path45"/>
	<path d="M 164.363,149.59 C 164.363,154.445 160.958,156.1 158.668,156.1 C 155.793,156.1 152.971,153.836 152.971,149.59 C 152.971,146.46 154.956,143.688 158.668,143.688 C 162.813,143.688 164.363,147.021 164.363,149.59 L 164.363,149.59 z M 156.557,149.536 C 156.557,153.909 157.09,155.258 158.668,155.258 C 160.322,155.258 160.777,153.71 160.777,149.536 C 160.777,146.792 160.675,144.325 158.668,144.325 C 156.507,144.325 156.557,147.297 156.557,149.536 L 156.557,149.536 z " id="path47"/>
	<path d="M 170.295,153.886 C 170.295,155.082 170.93,155.159 171.389,155.159 L 171.389,155.689 L 165.743,155.689 L 165.743,155.159 C 166.201,155.159 166.839,155.082 166.839,153.886 L 166.839,145.799 C 166.839,144.604 166.201,144.526 165.743,144.526 L 165.743,143.997 L 170.298,143.997 L 170.298,145.851 L 170.349,145.851 C 170.529,145.214 170.933,144.81 171.316,144.455 C 172.665,143.205 177.242,143.13 177.242,147.174 L 177.242,153.89 C 177.242,155.085 177.881,155.162 178.337,155.162 L 178.337,155.692 L 172.69,155.692 L 172.69,155.162 C 173.149,155.162 173.787,155.085 173.787,153.89 L 173.787,146.994 C 173.787,145.164 172.36,145.243 171.724,145.444 C 171.089,145.645 170.555,146.233 170.302,146.841 L 170.302,153.886 L 170.295,153.886 L 170.295,153.886 z " id="path49"/>
	<path d="M 179.188,147.087 C 179.188,145.104 180.817,143.494 182.834,143.494 C 184.837,143.494 186.455,145.101 186.455,147.087 C 186.455,149.093 184.837,150.701 182.834,150.701 C 180.814,150.701 179.188,149.093 179.188,147.087 L 179.188,147.087 z M 179.93,147.087 C 179.93,148.716 181.194,150.02 182.832,150.02 C 184.457,150.02 185.711,148.716 185.711,147.087 C 185.711,145.481 184.457,144.177 182.832,144.177 C 181.191,144.177 179.93,145.479 179.93,147.087 L 179.93,147.087 z M 181.59,145.542 C 181.59,145.357 181.468,145.37 181.326,145.37 L 181.162,145.37 L 181.162,145.101 L 182.767,145.101 C 183.124,145.101 183.574,145.081 183.885,145.253 C 184.183,145.417 184.349,145.763 184.349,146.078 C 184.349,146.587 183.885,146.985 183.411,147.057 C 184.122,147.125 184.295,148.664 184.805,148.664 L 184.805,148.905 L 184.194,148.905 C 184.063,148.905 183.899,148.917 183.79,148.845 C 183.599,148.72 183.435,148.283 183.342,148.101 C 183.271,147.925 183.099,147.491 182.976,147.355 C 182.861,147.205 182.745,147.226 182.588,147.226 L 182.446,147.226 L 182.446,148.386 C 182.446,148.53 182.458,148.661 182.649,148.661 L 182.852,148.661 L 182.852,148.902 L 181.139,148.902 L 181.139,148.661 L 181.213,148.661 C 181.466,148.661 181.588,148.688 181.588,148.414 L 181.59,145.542 L 181.59,145.542 z M 182.445,146.914 C 182.515,146.935 182.595,146.945 182.668,146.945 C 183.199,146.945 183.494,146.681 183.494,146.138 C 183.494,145.683 183.248,145.388 182.779,145.388 C 182.72,145.388 182.547,145.388 182.496,145.408 C 182.435,145.42 182.445,145.462 182.445,145.519 L 182.445,146.914 L 182.445,146.914 z " id="path51"/>
</g>
</svg>